<svg width="9" height="11" viewBox="0 0 9 11" fill="none" xmlns="http://www.w3.org/2000/svg">
<path d="M1.414 10.612C1.18067 10.612 0.989333 10.5513 0.84 10.43C0.690667 10.2993 0.602 10.1407 0.574 9.954C0.555333 9.758 0.620667 9.562 0.77 9.366L3.976 5.096V5.866L0.924 1.778C0.774667 1.57267 0.709333 1.37667 0.728 1.19C0.746667 0.993999 0.830667 0.835333 0.98 0.713999C1.12933 0.583332 1.316 0.517999 1.54 0.517999C1.72667 0.517999 1.89 0.564666 2.03 0.658C2.17933 0.742 2.32867 0.886666 2.478 1.092L4.998 4.564H4.424L6.93 1.092C7.07933 0.886666 7.224 0.742 7.364 0.658C7.51333 0.564666 7.686 0.517999 7.882 0.517999C8.11533 0.517999 8.30667 0.578666 8.456 0.699999C8.60533 0.821333 8.68933 0.98 8.708 1.176C8.72667 1.36267 8.65667 1.56333 8.498 1.778L5.446 5.866V5.096L8.638 9.366C8.78733 9.562 8.85267 9.758 8.834 9.954C8.81533 10.1407 8.73133 10.2993 8.582 10.43C8.43267 10.5513 8.23667 10.612 7.994 10.612C7.81667 10.612 7.65333 10.5653 7.504 10.472C7.364 10.3787 7.21467 10.2293 7.056 10.024L4.396 6.384H5.012L2.366 10.024C2.21667 10.2293 2.06733 10.3787 1.918 10.472C1.76867 10.5653 1.60067 10.612 1.414 10.612Z" fill="#868E96"/>
</svg>
